<svg width="17" height="17" viewBox="0 0 17 17" fill="none" xmlns="http://www.w3.org/2000/svg">
<path d="M1.21233 14.3515C0.821803 14.742 0.821803 15.3752 1.21233 15.7657C1.60285 16.1562 2.23602 16.1562 2.62654 15.7657L1.21233 14.3515ZM16.1273 1.8507C16.1273 1.29841 15.6796 0.850699 15.1273 0.850699H6.12733C5.57504 0.850699 5.12733 1.29841 5.12733 1.8507C5.12733 2.40298 5.57504 2.8507 6.12733 2.8507L14.1273 2.8507L14.1273 10.8507C14.1273 11.403 14.575 11.8507 15.1273 11.8507C15.6796 11.8507 16.1273 11.403 16.1273 10.8507V1.8507ZM2.62654 15.7657L15.8344 2.55781L14.4202 1.14359L1.21233 14.3515L2.62654 15.7657Z" fill="white"/>
</svg>
