<svg width="26" height="22" viewBox="0 0 26 22" fill="none" xmlns="http://www.w3.org/2000/svg">
<g clip-path="url(#clip0_595_824)">
<path d="M23.4618 17.5539C23.9687 17.5541 24.456 17.7374 24.8229 18.0658C25.1897 18.3942 25.4079 18.8425 25.4323 19.3178C25.4566 19.7931 25.2853 20.259 24.9537 20.6189C24.6221 20.9788 24.1558 21.2052 23.6513 21.2511L23.4618 21.2598H6.40923C5.90237 21.2595 5.41503 21.0762 5.0482 20.7478C4.68137 20.4195 4.46316 19.9712 4.43881 19.4959C4.41445 19.0206 4.5858 18.5547 4.91736 18.1947C5.24891 17.8348 5.71526 17.6084 6.21976 17.5625L6.40923 17.5539H23.4618ZM23.4618 8.90682C23.9853 8.90682 24.4873 9.10204 24.8574 9.44954C25.2276 9.79703 25.4355 10.2683 25.4355 10.7598C25.4355 11.2512 25.2276 11.7225 24.8574 12.07C24.4873 12.4175 23.9853 12.6127 23.4618 12.6127H2.40923C1.88578 12.6127 1.38376 12.4175 1.01363 12.07C0.643488 11.7225 0.435547 11.2512 0.435547 10.7598C0.435547 10.2683 0.643488 9.79703 1.01363 9.44954C1.38376 9.10204 1.88578 8.90682 2.40923 8.90682H23.4618ZM23.4618 0.259766C23.9853 0.259766 24.4873 0.454986 24.8574 0.80248C25.2276 1.14997 25.4355 1.62127 25.4355 2.11271C25.4355 2.60414 25.2276 3.07544 24.8574 3.42293C24.4873 3.77043 23.9853 3.96565 23.4618 3.96565H10.4092C9.88578 3.96565 9.38376 3.77043 9.01363 3.42293C8.64349 3.07544 8.43555 2.60414 8.43555 2.11271C8.43555 1.62127 8.64349 1.14997 9.01363 0.80248C9.38376 0.454986 9.88578 0.259766 10.4092 0.259766H23.4618Z" fill="#006F62"/>
</g>
<defs>
<clipPath id="clip0_595_824">
<rect width="26" height="22" fill="white"/>
</clipPath>
</defs>
</svg>
