<svg width="23" height="24" viewBox="0 0 23 24" fill="none" xmlns="http://www.w3.org/2000/svg">
<g clip-path="url(#clip0_510_1110)">
<path d="M11.7319 23.0411C9.60616 23.0411 7.48037 23.0252 5.35458 23.0473C4.08183 23.0603 3.13533 22.246 2.83003 21.1708C2.49811 19.9999 2.25341 18.8047 1.98039 17.6175C1.57257 15.8439 1.16814 14.0692 0.772779 12.2929C0.49863 11.0626 0.725199 9.95626 1.65583 9.05478C2.06536 8.65865 2.56721 8.44587 3.14326 8.43738C3.64058 8.43002 4.13847 8.4272 4.63579 8.43568C4.80005 8.43851 4.85839 8.39154 4.86689 8.22347C4.93939 6.8223 5.32683 5.5111 6.05865 4.31365C7.06688 2.66517 8.46595 1.50337 10.3754 1.05801C12.0554 0.666404 13.6476 0.957278 15.0914 1.89668C17.0648 3.18128 18.1308 5.05781 18.5245 7.34519C18.5755 7.64116 18.5987 7.94278 18.6197 8.24271C18.6299 8.38532 18.6763 8.43738 18.8241 8.43455C19.2688 8.42606 19.7134 8.43682 20.1581 8.43059C21.1742 8.41644 21.893 8.90538 22.3869 9.75537C22.8491 10.5505 22.9171 11.4044 22.7155 12.2895C22.0737 15.1054 21.4331 17.9213 20.7902 20.7367C20.6191 21.486 20.2764 22.1294 19.6398 22.5929C19.2025 22.9109 18.7114 23.0416 18.1773 23.0411C16.0288 23.0399 13.8804 23.0411 11.7319 23.0411ZM11.7535 10.2726C8.99499 10.2726 6.23707 10.2726 3.47858 10.2726C3.38796 10.2726 3.29733 10.2703 3.20727 10.276C2.85269 10.2975 2.67086 10.4345 2.56381 10.7734C2.44146 11.1611 2.49924 11.5493 2.5859 11.933C3.09058 14.17 3.59583 16.407 4.10618 18.6429C4.25855 19.3095 4.40865 19.9773 4.59331 20.6354C4.70829 21.0451 4.95922 21.1928 5.3812 21.1928C8.39571 21.1928 11.4102 21.1928 14.4247 21.1928C15.6833 21.1928 16.9419 21.1883 18.2005 21.1968C18.4577 21.1985 18.648 21.0983 18.759 20.8878C18.87 20.6784 18.9646 20.4515 19.0179 20.2212C19.4585 18.3163 19.8907 16.4098 20.3189 14.5027C20.5478 13.483 20.7664 12.4615 20.9828 11.4389C21.0105 11.3088 21.0117 11.1679 20.9964 11.0354C20.9329 10.4673 20.7137 10.2737 20.1411 10.2737C17.3452 10.272 14.5493 10.2726 11.7535 10.2726ZM16.7635 8.41701C16.7703 8.37004 16.7776 8.34797 16.7759 8.32647C16.6502 6.50313 15.9728 4.94689 14.5476 3.7568C13.0398 2.49767 10.867 2.40599 9.25611 3.52421C8.1074 4.32214 7.38861 5.42225 6.98418 6.7425C6.81879 7.28237 6.71456 7.83413 6.71173 8.41701C10.0684 8.41701 13.4097 8.41701 16.7635 8.41701Z" fill="black"/>
<path d="M17.0305 15.919C17.0305 16.8527 17.0356 17.7864 17.0288 18.7202C17.0243 19.3885 16.4907 19.8322 15.883 19.6873C15.4729 19.5894 15.1874 19.2267 15.1834 18.7739C15.1772 18.0434 15.1812 17.3128 15.1812 16.5828C15.1812 15.408 15.1755 14.2331 15.1834 13.0583C15.188 12.3877 15.7974 11.9509 16.4092 12.1636C16.7983 12.2989 17.0283 12.6458 17.0294 13.1177C17.0328 14.0515 17.0305 14.9852 17.0305 15.919Z" fill="black"/>
<path d="M8.08109 15.9041C8.08109 16.8679 8.08505 17.8322 8.07939 18.7959C8.07712 19.1869 7.88624 19.4795 7.52996 19.6317C7.17708 19.7828 6.83439 19.7296 6.54042 19.4693C6.32348 19.2775 6.23681 19.0234 6.23681 18.7416C6.23455 16.8515 6.23058 14.9608 6.23908 13.0707C6.24191 12.5053 6.64974 12.1013 7.16631 12.1075C7.69932 12.1132 8.07996 12.5234 8.08166 13.1024C8.08449 14.0361 8.08222 14.9698 8.08222 15.9041C8.08166 15.9041 8.08109 15.9041 8.08109 15.9041Z" fill="black"/>
<path d="M12.5576 15.9059C12.5576 16.8622 12.5644 17.8186 12.5548 18.775C12.548 19.4614 11.8904 19.9051 11.2792 19.6402C10.8725 19.4643 10.7083 19.1275 10.7083 18.698C10.7083 17.4479 10.7083 16.1979 10.7083 14.9478C10.7083 14.323 10.7032 13.6977 10.7105 13.0729C10.7162 12.6236 10.9643 12.2795 11.3495 12.1562C11.7205 12.0368 12.1402 12.1466 12.3526 12.477C12.4676 12.6564 12.544 12.8924 12.5486 13.1052C12.5695 14.0384 12.5576 14.9721 12.5576 15.9059Z" fill="black"/>
</g>
<defs>
<clipPath id="clip0_510_1110">
<rect width="22.1585" height="22.1585" fill="white" transform="translate(0.665039 0.888672)"/>
</clipPath>
</defs>
</svg>
