<svg width="17" height="17" viewBox="0 0 17 17" fill="none" xmlns="http://www.w3.org/2000/svg">
<path d="M1.33584 13.9364C0.847688 14.4246 0.847688 15.216 1.33584 15.7042C1.824 16.1924 2.61545 16.1924 3.10361 15.7042L1.33584 13.9364ZM16.6776 1.61242C16.6776 0.922063 16.118 0.362419 15.4276 0.362418L4.17762 0.362418C3.48727 0.362418 2.92762 0.922062 2.92762 1.61242C2.92762 2.30277 3.48727 2.86242 4.17762 2.86242H14.1776V12.8624C14.1776 13.5528 14.7373 14.1124 15.4276 14.1124C16.118 14.1124 16.6776 13.5528 16.6776 12.8624L16.6776 1.61242ZM3.10361 15.7042L16.3115 2.4963L14.5437 0.728535L1.33584 13.9364L3.10361 15.7042Z" fill="#006F62"/>
</svg>
