<svg width="18" height="18" viewBox="0 0 18 18" fill="none" xmlns="http://www.w3.org/2000/svg">
<path d="M0.824613 15.3642C0.336457 15.8523 0.336457 16.6438 0.824613 17.1319C1.31277 17.6201 2.10422 17.6201 2.59238 17.1319L0.824613 15.3642ZM17.4699 1.73669C17.4699 1.04633 16.9102 0.486687 16.2199 0.486687H4.96986C4.2795 0.486687 3.71986 1.04633 3.71986 1.73669C3.71986 2.42704 4.2795 2.98669 4.96986 2.98669L14.9699 2.98669L14.9699 12.9867C14.9699 13.677 15.5295 14.2367 16.2199 14.2367C16.9102 14.2367 17.4699 13.677 17.4699 12.9867V1.73669ZM2.59238 17.1319L17.1037 2.62057L15.336 0.852804L0.824613 15.3642L2.59238 17.1319Z" fill="black"/>
</svg>
