<svg width="25" height="24" viewBox="0 0 25 24" fill="none" xmlns="http://www.w3.org/2000/svg">
<g clip-path="url(#clip0_510_1315)">
<circle cx="12.2247" cy="5.86045" r="5.44873" stroke="black" stroke-width="1.8"/>
<mask id="path-2-inside-1_510_1315" fill="white">
<path d="M-0.313588 23.6542C-0.313588 22.0078 0.0106957 20.3776 0.640747 18.8565C1.2708 17.3354 2.19428 15.9533 3.35846 14.7891C4.52265 13.6249 5.90473 12.7015 7.42581 12.0714C8.94689 11.4414 10.5772 11.1171 12.2236 11.1171C13.87 11.1171 15.5003 11.4414 17.0213 12.0714C18.5424 12.7015 19.9245 13.6249 21.0887 14.7891C22.2529 15.9533 23.1764 17.3354 23.8064 18.8565C24.4365 20.3776 24.7607 22.0078 24.7607 23.6542L12.2236 23.6542L-0.313588 23.6542Z"/>
</mask>
<path d="M-0.313588 23.6542C-0.313588 22.0078 0.0106957 20.3776 0.640747 18.8565C1.2708 17.3354 2.19428 15.9533 3.35846 14.7891C4.52265 13.6249 5.90473 12.7015 7.42581 12.0714C8.94689 11.4414 10.5772 11.1171 12.2236 11.1171C13.87 11.1171 15.5003 11.4414 17.0213 12.0714C18.5424 12.7015 19.9245 13.6249 21.0887 14.7891C22.2529 15.9533 23.1764 17.3354 23.8064 18.8565C24.4365 20.3776 24.7607 22.0078 24.7607 23.6542L12.2236 23.6542L-0.313588 23.6542Z" stroke="black" stroke-width="3.6" mask="url(#path-2-inside-1_510_1315)"/>
</g>
<defs>
<clipPath id="clip0_510_1315">
<rect width="25" height="24" fill="white"/>
</clipPath>
</defs>
</svg>
