<svg width="75" height="75" viewBox="0 0 75 75" fill="none" xmlns="http://www.w3.org/2000/svg">
<circle cx="37.8443" cy="37.8433" r="36.941" fill="white"/>
<path d="M29.8908 27.0623C29.1097 26.2813 27.8434 26.2813 27.0623 27.0623C26.2813 27.8434 26.2813 29.1097 27.0623 29.8908L29.8908 27.0623ZM47.583 49.583C48.6875 49.583 49.583 48.6875 49.583 47.583V29.583C49.583 28.4784 48.6875 27.583 47.583 27.583C46.4784 27.583 45.583 28.4784 45.583 29.583V45.583H29.583C28.4784 45.583 27.583 46.4784 27.583 47.583C27.583 48.6875 28.4784 49.583 29.583 49.583H47.583ZM27.0623 29.8908L46.1687 48.9972L48.9972 46.1687L29.8908 27.0623L27.0623 29.8908Z" fill="black"/>
</svg>
